<svg xmlns="http://www.w3.org/2000/svg" width="320" height="72" viewBox="0 0 320 72" role="img" aria-labelledby="title desc">
  <title id="title">ACME Training Logo</title>
  <desc id="desc">Example ACME logo for branded inferno challenge deployments.</desc>
  <defs>
    <linearGradient id="acmeFire" x1="0" y1="0" x2="1" y2="1">
      <stop offset="0%" stop-color="#FFB347" />
      <stop offset="100%" stop-color="#FF6A00" />
    </linearGradient>
  </defs>
  <rect x="1" y="1" width="318" height="70" rx="14" fill="#1E120E" stroke="#FFB347" stroke-opacity="0.5" />
  <path d="M33 50L53 17h14l20 33h-12l-4-7H49l-4 7H33zm21-16h12l-6-10-6 10z" fill="url(#acmeFire)" />
  <path d="M94 50V17h15l9 15 9-15h15v33h-11V33l-8 13h-10l-8-13v17H94z" fill="#F8EBDD" />
  <path d="M149 50V17h31v9h-20v4h18v8h-18v4h20v8h-31z" fill="#F8EBDD" />
  <text x="189" y="31" fill="#FFD9B5" font-family="Inter, Arial, sans-serif" font-size="11" letter-spacing="1.8">SECURE TRAINING</text>
  <text x="189" y="48" fill="#FFC98F" font-family="Inter, Arial, sans-serif" font-size="10" letter-spacing="1.5">INFERNO PROFILE</text>
</svg>
